Coordinates
version=1
nRows=28
nColumns=38
inDegrees=no

Units are S.I. units (second, meters, Newtons, ...)
If the header above contains a line with 'inDegrees', this indicates whether rotational values are in degrees (yes) or radians (no).

endheader
time	pelvis_tilt	pelvis_list	pelvis_rotation	pelvis_tx	pelvis_ty	pelvis_tz	hip_flexion_r	hip_adduction_r	hip_rotation_r	knee_angle_r	ankle_angle_r	subtalar_angle_r	mtp_angle_r	hip_flexion_l	hip_adduction_l	hip_rotation_l	knee_angle_l	ankle_angle_l	subtalar_angle_l	mtp_angle_l	lumbar_extension	lumbar_bending	lumbar_rotation	arm_flex_r	arm_add_r	arm_rot_r	elbow_flex_r	pro_sup_r	wrist_flex_r	wrist_dev_r	arm_flex_l	arm_add_l	arm_rot_l	elbow_flex_l	pro_sup_l	wrist_flex_l	wrist_dev_l
62.14	2.88452	1.48431	-1.30378	0.615547	0.364193	1.03484	-0.134416	-0.0295501	-0.140876	0.0769308	-0.385623	0	0	-0.266077	-0.0509577	-0.327014	0	-0.522499	0	0	-0.487352	0.0162492	-0.0531674	0.331654	-0.48967	1.43744	0.627668	0.141261	0	0	0.164599	-0.510191	1.1417	0.713132	0.584056	0	0
62.15	2.89614	1.48077	-1.31558	0.6155	0.364137	1.03507	-0.137349	-0.030059	-0.140103	0.0790825	-0.385548	0	0	-0.269693	-0.0508564	-0.326705	0	-0.522353	0	0	-0.484397	0.0167178	-0.0489477	0.32534	-0.489643	1.43374	0.625919	0.141519	0	0	0.170264	-0.508256	1.14686	0.712014	0.574904	0	0
62.16	2.90107	1.47843	-1.3211	0.615439	0.36404	1.03529	-0.138243	-0.0305579	-0.138577	0.0824926	-0.381925	0	0	-0.271501	-0.0509048	-0.328014	0	-0.521796	0	0	-0.482833	0.0174222	-0.0482308	0.320612	-0.488342	1.42456	0.623796	0.150677	0	0	0.157601	-0.501766	1.09321	0.7083	0.632792	0	0
62.17	2.90541	1.47733	-1.32583	0.6154	0.363865	1.03542	-0.137494	-0.0313794	-0.137511	0.0862406	-0.38049	0	0	-0.271198	-0.0508915	-0.329989	0	-0.521393	0	0	-0.478932	0.0177674	-0.0460904	0.315894	-0.487593	1.42014	0.62213	0.151461	0	0	0.153125	-0.497483	1.06573	0.706879	0.657912	0	0
62.18	2.91017	1.47611	-1.33035	0.615344	0.363649	1.03559	-0.13684	-0.0321388	-0.137365	0.089958	-0.379668	0	0	-0.27047	-0.0511497	-0.332127	0	-0.521011	0	0	-0.475265	0.0183838	-0.0440478	0.311712	-0.487094	1.41728	0.620902	0.151985	0	0	0.15163	-0.494859	1.04789	0.70741	0.672314	0	0
62.19	2.91286	1.47469	-1.33314	0.61535	0.363535	1.03577	-0.136206	-0.0326422	-0.137409	0.0942955	-0.378638	0	0	-0.270408	-0.0514713	-0.333086	0	-0.520462	0	0	-0.471848	0.0190169	-0.0418948	0.307451	-0.486604	1.41351	0.619962	0.153064	0	0	0.147935	-0.491876	1.02374	0.708461	0.692517	0	0
62.2	2.91409	1.4741	-1.33469	0.615349	0.363408	1.03588	-0.134736	-0.033201	-0.136837	0.0984471	-0.377435	0	0	-0.27012	-0.0515273	-0.3324	0	-0.520158	0	0	-0.468339	0.0194641	-0.0401161	0.303406	-0.486171	1.40826	0.619521	0.154495	0	0	0.142182	-0.488253	0.992766	0.709737	0.719309	0	0
62.21	2.91528	1.47389	-1.33589	0.615311	0.363229	1.03595	-0.133102	-0.0337196	-0.136349	0.101986	-0.376676	0	0	-0.269579	-0.0515803	-0.331067	0	-0.520164	0	0	-0.464651	0.0200163	-0.0382667	0.299723	-0.486164	1.40412	0.619624	0.155119	0	0	0.13885	-0.485396	0.969819	0.71133	0.737503	0	0
62.22	2.92126	1.47256	-1.34144	0.615326	0.362939	1.03606	-0.132953	-0.0341913	-0.136371	0.105063	-0.375685	0	0	-0.270138	-0.0516642	-0.329666	0	-0.520224	0	0	-0.459306	0.0207918	-0.0363953	0.296132	-0.48651	1.40338	0.620027	0.155199	0	0	0.135503	-0.480927	0.947542	0.709516	0.757068	0	0
62.23	2.92588	1.47149	-1.34567	0.615331	0.362671	1.03618	-0.132638	-0.0345606	-0.136113	0.107843	-0.374717	0	0	-0.27042	-0.0517356	-0.328616	0	-0.52023	0	0	-0.454297	0.021642	-0.0350177	0.293301	-0.486889	1.40282	0.620559	0.156303	0	0	0.132334	-0.476626	0.925956	0.707605	0.775976	0	0
62.24	2.9299	1.47063	-1.34944	0.61532	0.36243	1.0363	-0.132232	-0.0348904	-0.135534	0.110355	-0.373827	0	0	-0.270605	-0.0517033	-0.327648	0	-0.520137	0	0	-0.449684	0.0224997	-0.0341835	0.291285	-0.4872	1.40269	0.621066	0.157681	0	0	0.128957	-0.472433	0.904042	0.70567	0.795491	0	0
62.25	2.93409	1.46968	-1.35346	0.615291	0.362187	1.03643	-0.131998	-0.0352237	-0.134704	0.112724	-0.373187	0	0	-0.270995	-0.0515928	-0.326714	0	-0.520021	0	0	-0.445812	0.0233977	-0.034016	0.29044	-0.487443	1.40377	0.621645	0.158659	0	0	0.125071	-0.468085	0.8807	0.703363	0.818294	0	0
62.26	2.68972	1.52987	-1.11245	0.616014	0.364595	1.03296	-0.0603518	-0.0392633	-0.114319	0.125961	-0.364856	0	0	-0.203037	-0.0481948	-0.315226	0	-0.517442	0	0	-0.315284	0.0633218	-0.011345	0.240426	-0.50857	1.39461	0.616437	0.156724	0	0	0.144335	-0.132148	-0.0669856	0.262146	1.5708	0	0
62.27	2.69896	1.52949	-1.12172	0.615972	0.364321	1.03301	-0.0601029	-0.0394567	-0.112592	0.126924	-0.364351	0	0	-0.202886	-0.0479712	-0.314646	0	-0.517155	0	0	-0.312338	0.0630157	-0.00915892	0.236753	-0.508604	1.38762	0.616349	0.164003	0	0	0.145068	-0.135753	-0.0472669	0.266851	1.5708	0	0
62.28	2.70554	1.5292	-1.12828	0.615927	0.364053	1.03302	-0.0594382	-0.0396598	-0.110745	0.128631	-0.363706	0	0	-0.202669	-0.0477828	-0.314365	0	-0.516917	0	0	-0.309593	0.0627274	-0.00715269	0.233171	-0.508601	1.38031	0.616199	0.171331	0	0	0.145474	-0.140163	-0.0239998	0.272304	1.5708	0	0
62.29	2.70975	1.52884	-1.13233	0.615863	0.363756	1.03305	-0.0590728	-0.039738	-0.109092	0.129592	-0.363399	0	0	-0.202418	-0.0476829	-0.314277	0	-0.516601	0	0	-0.307313	0.0627314	-0.00601988	0.231005	-0.508586	1.37541	0.616085	0.176221	0	0	0.145751	-0.144062	-0.00622197	0.277672	1.5708	0	0
62.3	2.70981	1.52856	-1.13217	0.615819	0.363426	1.03308	-0.0585048	-0.0397103	-0.107497	0.130768	-0.363289	0	0	-0.201884	-0.0477606	-0.314253	0	-0.51627	0	0	-0.305266	0.0628713	-0.00532334	0.229442	-0.508495	1.3712	0.615939	0.180374	0	0	0.145758	-0.148148	0.0105279	0.283517	1.5708	0	0
62.31	2.70449	1.52834	-1.12651	0.61577	0.363092	1.03309	-0.0577087	-0.0395418	-0.106581	0.132205	-0.363323	0	0	-0.201099	-0.0481545	-0.314153	0	-0.516047	0	0	-0.303316	0.0632586	-0.00498048	0.228172	-0.508293	1.36746	0.615617	0.183754	0	0	0.145201	-0.152619	0.0266995	0.29039	1.5708	0	0
62.32	2.69785	1.52812	-1.1194	0.615696	0.362758	1.0331	-0.0570825	-0.0393335	-0.10635	0.133286	-0.363472	0	0	-0.20024	-0.0486952	-0.313697	0	-0.516055	0	0	-0.301725	0.0637133	-0.00477135	0.227288	-0.507963	1.36467	0.614922	0.186002	0	0	0.144372	-0.157197	0.0416289	0.297811	1.5708	0	0
62.33	2.6928	1.52801	-1.11392	0.615598	0.362393	1.03316	-0.05676	-0.0392473	-0.106495	0.133345	-0.363628	0	0	-0.19943	-0.0490872	-0.31285	0	-0.516136	0	0	-0.300411	0.0641598	-0.00456746	0.226829	-0.507777	1.36285	0.614176	0.187225	0	0	0.143951	-0.161334	0.0538548	0.304392	1.5708	0	0
62.34	2.68231	1.52892	-1.10299	0.6155	0.362018	1.03317	-0.0552003	-0.0394743	-0.106709	0.13366	-0.3639	0	0	-0.197778	-0.0492111	-0.310981	0	-0.516482	0	0	-0.298967	0.0643481	-0.00641542	0.228542	-0.506895	1.36422	0.612864	0.186861	0	0	0.140324	-0.166265	0.0615635	0.31585	1.5708	0	0
62.35	2.92781	1.48169	-1.34534	0.615356	0.359512	1.03583	-0.110713	-0.0380789	-0.122148	0.125592	-0.367576	0	0	-0.250029	-0.051025	-0.317773	0	-0.517621	0	0	-0.397013	0.032308	-0.0138707	0.248771	-0.492861	1.32496	0.618386	0.235733	0	0	0.148252	-0.438196	0.847078	0.657882	0.860492	0	0
62.36	2.91321	1.48759	-1.33082	0.615484	0.359585	1.0357	-0.104273	-0.0380461	-0.121336	0.125492	-0.367865	0	0	-0.242538	-0.0511924	-0.316211	0	-0.518003	0	0	-0.378513	0.0401082	-0.0117793	0.242079	-0.496244	1.32352	0.617334	0.239053	0	0	0.151889	-0.413449	0.842779	0.615344	0.857675	0	0
62.37	2.92601	1.48139	-1.34375	0.615635	0.358909	1.03596	-0.110509	-0.0375469	-0.122749	0.125511	-0.36841	0	0	-0.248013	-0.0519816	-0.317076	0	-0.517314	0	0	-0.389096	0.0350751	-0.0136211	0.249777	-0.493782	1.33559	0.61755	0.22294	0	0	0.147782	-0.434295	0.840187	0.650336	0.862272	0	0
62.38	2.9226	1.48362	-1.341	0.615878	0.358601	1.03589	-0.107074	-0.0376252	-0.121458	0.127125	-0.360184	0	0	-0.2444	-0.0519833	-0.315825	0	-0.513926	0	0	-0.385535	0.0347561	-0.00740306	0.230954	-0.492926	1.28138	0.615143	0.297083	0	0	0.152654	-0.432433	0.844038	0.647338	0.864479	0	0
62.39	2.91571	1.48635	-1.33499	0.616083	0.358342	1.03576	-0.102759	-0.03772	-0.119993	0.129335	-0.357006	0	0	-0.24033	-0.052007	-0.315172	0	-0.512402	0	0	-0.380055	0.0350563	-0.00423732	0.225405	-0.49304	1.27037	0.613866	0.31276	0	0	0.153684	-0.429679	0.841903	0.642964	0.869858	0	0
62.4	2.90701	1.49002	-1.32742	0.616322	0.358118	1.03556	-0.0968656	-0.0380581	-0.11812	0.132832	-0.352961	0	0	-0.235326	-0.0518213	-0.314793	0	-0.5102	0	0	-0.373857	0.0350305	-0.000411747	0.218612	-0.492985	1.25648	0.612402	0.332978	0	0	0.154524	-0.426525	0.838819	0.638213	0.876909	0	0
62.41	2.89492	1.49516	-1.31678	0.616581	0.357923	1.03524	-0.089209	-0.0386686	-0.115547	0.136694	-0.347861	0	0	-0.228804	-0.051386	-0.314259	0	-0.507129	0	0	-0.366415	0.034517	0.00391652	0.210345	-0.492338	1.23884	0.610237	0.358636	0	0	0.154979	-0.4231	0.834794	0.633156	0.885924	0	0
